<?xml version="1.0" encoding="UTF-8"?>
<svg xmlns="http://www.w3.org/2000/svg" version="1.1" viewBox="0 0 160 160">
  <defs>
    <style>
      .cls-1 {
        fill: #fff;
      }

      .cls-1, .cls-2 {
        stroke-width: 3px;
      }

      .cls-1, .cls-2, .cls-3 {
        stroke: #1d1d1b;
        stroke-miterlimit: 10;
      }

      .cls-2 {
        fill: none;
      }

      .cls-3 {
        fill: #1d1d1b;
      }
    </style>
  </defs>
  <!-- Generator: Adobe Illustrator 28.7.3, SVG Export Plug-In . SVG Version: 1.2.0 Build 164)  -->
  <g>
    <g id="Layer_1">
      <g>
        <circle class="cls-1" cx="80" cy="80" r="75"/>
        <g>
          <g id="_x3C_Radial_Repeat_x3E_">
            <line class="cls-2" x1="80" y1="149.17" x2="80" y2="101.31"/>
          </g>
          <g id="_x3C_Radial_Repeat_x3E_-2" data-name="_x3C_Radial_Repeat_x3E_">
            <line class="cls-2" x1="31.09" y1="128.91" x2="64.93" y2="95.07"/>
          </g>
          <g id="_x3C_Radial_Repeat_x3E_-3" data-name="_x3C_Radial_Repeat_x3E_">
            <line class="cls-2" x1="10.83" y1="80" x2="58.69" y2="80"/>
          </g>
          <g id="_x3C_Radial_Repeat_x3E_-4" data-name="_x3C_Radial_Repeat_x3E_">
            <line class="cls-2" x1="31.09" y1="31.09" x2="64.93" y2="64.93"/>
          </g>
          <g id="_x3C_Radial_Repeat_x3E_-5" data-name="_x3C_Radial_Repeat_x3E_">
            <line class="cls-2" x1="80" y1="10.83" x2="80" y2="58.69"/>
          </g>
          <g id="_x3C_Radial_Repeat_x3E_-6" data-name="_x3C_Radial_Repeat_x3E_">
            <line class="cls-2" x1="128.91" y1="31.09" x2="95.07" y2="64.93"/>
          </g>
          <g id="_x3C_Radial_Repeat_x3E_-7" data-name="_x3C_Radial_Repeat_x3E_">
            <line class="cls-2" x1="149.17" y1="80" x2="101.31" y2="80"/>
          </g>
          <g id="_x3C_Radial_Repeat_x3E_-8" data-name="_x3C_Radial_Repeat_x3E_">
            <line class="cls-2" x1="128.91" y1="128.91" x2="95.07" y2="95.07"/>
          </g>
        </g>
        <g>
          <path class="cls-3" d="M9.79,70.1c-.01-.09-.02-.18-.03-.27,0-.09,0-.18,0-.27,0-.43.1-.76.31-.97.21-.22.49-.36.83-.43.34-.07.73-.1,1.15-.1.2,0,.44,0,.73,0,.29,0,.58.02.88.03s.54.02.72.02c.43,0,.85-.03,1.27-.1.41-.07.76-.21,1.04-.43.01.07.02.15.03.23,0,.08,0,.16,0,.25,0,.54-.1.92-.31,1.14-.21.22-.49.32-.85.32-.31,0-.6,0-.87,0-.27,0-.53,0-.78,0-.39,0-.82,0-1.29.03s-.93.07-1.42.15c-.48.08-.96.22-1.42.42ZM11.5,63.22c-.35,0-.62-.02-.81-.07s-.34-.14-.43-.28c-.09-.14-.13-.33-.13-.59,0-.21.02-.4.05-.57.03-.17.06-.31.1-.41.62.09,1.25.15,1.9.19.65.04,1.29.06,1.93.06.8,0,1.59-.03,2.38-.1.78-.07,1.52-.17,2.21-.31-.09.59-.32,1.02-.71,1.28-.39.26-.85.43-1.38.52-.43.07-.95.13-1.55.17-.6.04-1.22.06-1.85.08-.63.02-1.2.03-1.7.03ZM11.83,76.14c-.56,0-.97-.12-1.26-.37-.28-.25-.43-.65-.43-1.22,0-.44.04-1.01.12-1.68s.18-1.43.31-2.27c.12-.83.25-1.71.37-2.62.12-.91.23-1.82.31-2.73s.13-1.77.13-2.6l1.85-.09c.02.1.04.2.05.31,0,.1,0,.21,0,.32,0,.51-.05,1.15-.16,1.94-.1.79-.23,1.67-.37,2.65s-.27,2.02-.37,3.13c-.1,1.1-.16,2.23-.16,3.38,0,.28,0,.58.02.88s.04.61.09.93c-.12.01-.22.02-.3.03-.07,0-.15,0-.22,0Z"/>
          <path class="cls-3" d="M22.76,76.1c-.44,0-.89-.1-1.33-.29s-.85-.48-1.21-.88c-.36-.39-.66-.9-.88-1.51-.22-.61-.33-1.33-.33-2.17,0-1.02.15-1.96.45-2.81s.73-1.58,1.29-2.19c.56-.61,1.22-1.06,1.97-1.36.14,0,.23.04.29.11.06.07.08.16.08.26-.38.26-.77.62-1.16,1.07-.39.46-.69,1.09-.92,1.89l.13.04c.36-.78.77-1.39,1.25-1.83s.96-.76,1.47-.94c.51-.19.98-.28,1.42-.28.54,0,1.02.16,1.42.48.41.32.72.78.95,1.38s.34,1.32.34,2.16c0,.79-.1,1.59-.3,2.4-.2.81-.51,1.55-.92,2.23-.42.68-.96,1.22-1.63,1.64s-1.47.62-2.4.62ZM22.95,74.95c.52,0,.98-.16,1.38-.49.4-.33.74-.76,1.02-1.29.28-.54.49-1.13.64-1.77.15-.64.22-1.27.22-1.89,0-1.1-.16-1.9-.47-2.4s-.72-.75-1.21-.75-.93.16-1.36.48c-.43.32-.81.74-1.15,1.26-.34.52-.6,1.09-.8,1.7-.19.62-.29,1.22-.29,1.79s.07,1.13.2,1.64c.14.51.35.92.65,1.24s.68.47,1.17.47Z"/>
          <path class="cls-3" d="M33.03,69.16c.31-1.05.67-1.87,1.09-2.45.42-.59.85-1,1.3-1.24.45-.24.86-.36,1.23-.36.63,0,1.14.2,1.54.61.39.41.59,1.01.59,1.79,0,.49-.1.96-.3,1.4-.2.44-.48.82-.83,1.16-.36.33-.79.6-1.29.8l.22.68c.22.72.5,1.41.84,2.09.34.68.69,1.3,1.05,1.88.36.57.7,1.07,1.02,1.48.32.41.57.71.76.88-.16.05-.32.09-.47.12-.15.03-.3.05-.43.05-.59,0-1.12-.19-1.57-.58-.46-.39-.86-.91-1.22-1.56-.36-.65-.68-1.38-.98-2.17-.3-.8-.58-1.6-.85-2.41-.12.01-.24.02-.35.02h-.35c-.07-.06-.11-.26-.11-.59.59-.01,1.09-.12,1.49-.32.4-.2.72-.47.97-.79.25-.32.43-.66.54-1.02.11-.36.17-.68.17-.98,0-.32-.07-.59-.22-.81-.15-.22-.38-.33-.68-.33-.38,0-.78.2-1.18.6-.41.4-.78.96-1.13,1.67-.35.71-.62,1.52-.83,2.43-.21.91-.31,1.88-.31,2.9,0,.28,0,.56.02.84.01.28.04.58.09.9-.11.01-.21.02-.29.03-.08,0-.15,0-.21,0-.57,0-.99-.12-1.28-.36s-.43-.64-.43-1.21c0-.41.04-.96.13-1.65.09-.69.19-1.49.32-2.39s.26-1.87.4-2.9c.14-1.04.25-2.11.33-3.21s.13-2.2.13-3.28c0-.51-.02-.95-.06-1.32-.04-.38-.09-.66-.17-.84.49.17.88.4,1.16.68s.48.64.6,1.05c.12.42.19.92.19,1.5,0,.48-.04,1.09-.12,1.83-.08.74-.18,1.57-.3,2.48-.12.91-.23,1.88-.34,2.89l.15.04Z"/>
          <path class="cls-3" d="M49.22,76.21c-.53-.21-.94-.48-1.23-.8-.29-.33-.49-.7-.6-1.11-.11-.41-.17-.87-.17-1.36,0-.2,0-.4.03-.6s.04-.42.06-.64l-.15-.04c-.28.81-.64,1.54-1.05,2.16-.42.63-.85,1.12-1.3,1.47s-.87.53-1.27.53c-.56,0-.98-.14-1.29-.42-.3-.28-.52-.65-.64-1.11-.12-.46-.19-.98-.19-1.54,0-.65.05-1.29.16-1.92.1-.62.21-1.23.31-1.82.1-.59.15-1.17.15-1.74,0-.35-.02-.68-.06-1.02s-.1-.67-.2-1.02c.47,0,.88.05,1.23.15.35.1.63.29.83.56.2.28.31.7.31,1.27,0,.44-.06.98-.19,1.62-.13.64-.26,1.29-.39,1.97-.13.68-.19,1.31-.19,1.91,0,.46.07.8.2,1.03s.35.34.65.34.58-.14.89-.43c.31-.28.6-.67.89-1.17.28-.49.54-1.06.77-1.69.23-.63.41-1.31.54-2.02.13-.71.19-1.42.19-2.14,0-.25,0-.5-.03-.76-.02-.26-.05-.51-.08-.74.1-.01.2-.02.31-.03.1,0,.2,0,.29,0,.27,0,.53.04.77.13.24.09.44.25.59.49.15.24.23.58.23,1.03,0,.23-.03.58-.1,1.04-.07.46-.15.98-.25,1.56-.1.59-.18,1.19-.25,1.81-.07.62-.1,1.22-.1,1.8s.02,1.12.07,1.67c.05.54.14,1.07.28,1.57Z"/>
          <path class="cls-3" d="M55.34,76.19c-1.11,0-1.96-.22-2.53-.67-.58-.44-.87-.98-.87-1.61,0-.53.15-.96.44-1.29.3-.33.65-.49,1.07-.49.1,0,.2,0,.31.03.1.02.21.06.32.12-.12.16-.22.35-.3.57-.07.22-.11.44-.11.65,0,.43.14.82.42,1.16.28.34.71.51,1.29.51.28,0,.56-.06.83-.17.27-.11.5-.28.68-.5.18-.22.27-.5.27-.83,0-.37-.1-.7-.31-.98s-.47-.55-.8-.8c-.33-.25-.67-.49-1.03-.74-.36-.25-.7-.51-1.03-.8-.33-.29-.59-.62-.8-1-.2-.38-.31-.82-.31-1.32,0-.58.15-1.09.45-1.54s.72-.81,1.27-1.06c.54-.26,1.18-.39,1.92-.39.67,0,1.21.1,1.62.31.41.21.71.48.9.81.18.33.28.67.28,1.03,0,.43-.12.82-.37,1.17-.25.35-.59.53-1.02.53-.09,0-.19-.02-.31-.05-.12-.03-.24-.07-.38-.12.17-.21.3-.44.37-.7.07-.26.11-.47.11-.63,0-.44-.15-.78-.44-1s-.62-.33-.98-.33c-.26,0-.52.05-.77.16-.25.1-.46.27-.62.49-.16.22-.24.5-.24.83,0,.4.11.75.32,1.07s.49.62.82.89c.33.27.69.54,1.06.8.38.27.73.54,1.06.82.33.28.61.6.82.94s.32.73.32,1.17c0,.58-.16,1.09-.48,1.54-.32.44-.76.79-1.33,1.05s-1.22.38-1.96.38Z"/>
          <path class="cls-3" d="M110.78,70.1c-.01-.09-.02-.18-.03-.27,0-.09,0-.18,0-.27,0-.43.1-.76.31-.97s.49-.36.83-.43c.34-.07.73-.1,1.15-.1.2,0,.44,0,.73,0,.29,0,.58.02.88.03.3.01.54.02.72.02.43,0,.85-.03,1.27-.1.41-.07.76-.21,1.04-.43.01.07.02.15.03.23,0,.08,0,.16,0,.25,0,.54-.1.92-.31,1.14s-.49.32-.85.32c-.31,0-.6,0-.87,0-.27,0-.53,0-.78,0-.4,0-.82,0-1.29.03s-.93.07-1.42.15c-.48.08-.96.22-1.42.42ZM112.48,63.22c-.35,0-.62-.02-.81-.07s-.34-.14-.42-.28c-.09-.14-.13-.33-.13-.59,0-.21.02-.4.05-.57.03-.17.07-.31.1-.41.62.09,1.25.15,1.9.19.65.04,1.29.06,1.93.06.8,0,1.59-.03,2.38-.1s1.52-.17,2.21-.31c-.09.59-.32,1.02-.71,1.28-.39.26-.85.43-1.38.52-.43.07-.95.13-1.55.17s-1.22.06-1.85.08c-.63.02-1.2.03-1.7.03ZM112.82,76.14c-.55,0-.97-.12-1.26-.37-.28-.25-.43-.65-.43-1.22,0-.44.04-1.01.12-1.68s.18-1.43.31-2.27c.12-.83.25-1.71.37-2.62.12-.91.23-1.82.31-2.73.09-.91.13-1.77.13-2.6l1.85-.09c.02.1.04.2.05.31,0,.1,0,.21,0,.32,0,.51-.05,1.15-.16,1.94-.11.79-.23,1.67-.37,2.65-.14.98-.27,2.02-.37,3.13-.11,1.1-.16,2.23-.16,3.38,0,.28,0,.58.02.88.01.3.04.61.09.93-.12.01-.22.02-.3.03-.07,0-.15,0-.22,0Z"/>
          <path class="cls-3" d="M122.34,74.19c0,.44.02.83.06,1.16s.09.58.17.75c-.48-.17-.86-.4-1.14-.69-.28-.29-.47-.65-.58-1.07-.11-.43-.17-.94-.17-1.54,0-.54.05-1.15.15-1.81s.2-1.34.3-2.03.15-1.35.15-1.98c0-.32,0-.64,0-.95,0-.31-.04-.63-.1-.93.09-.01.18-.02.28-.03.1,0,.18,0,.26,0,.56,0,.96.12,1.2.37.25.25.37.65.37,1.22,0,.36-.07.91-.22,1.67-.15.75-.3,1.63-.45,2.65s-.24,2.1-.25,3.26ZM123.18,63.5c-.15.05-.31.09-.48.13s-.35.06-.52.06-.35-.03-.52-.08-.32-.15-.43-.3-.18-.33-.18-.56c0-.21.04-.41.11-.61s.15-.4.22-.61c.15-.06.31-.11.49-.14.18-.03.35-.05.51-.05.17,0,.35.03.52.08.17.06.32.15.43.29.12.14.18.33.18.57,0,.2-.04.4-.11.6-.07.2-.15.41-.22.62Z"/>
          <path class="cls-3" d="M128.73,69.42c.32-.84.72-1.58,1.19-2.22.47-.64.97-1.14,1.49-1.51.52-.36,1-.55,1.44-.55.73,0,1.23.24,1.51.71.28.48.42,1.11.42,1.92,0,.59-.06,1.24-.18,1.94-.12.7-.24,1.42-.36,2.16-.12.74-.18,1.47-.18,2.18,0,.58.09,1.01.26,1.29s.44.52.8.73c-.12.01-.24.02-.35.02h-.33c-.83,0-1.42-.15-1.78-.46s-.54-.88-.54-1.7c0-.37.04-.79.11-1.27.07-.47.16-.97.26-1.5.1-.52.18-1.05.26-1.57s.11-1.02.11-1.49c0-.81-.25-1.22-.74-1.22-.35,0-.73.17-1.16.51-.43.34-.83.82-1.22,1.45-.39.63-.71,1.38-.96,2.26-.25.88-.38,1.84-.38,2.9,0,.28,0,.58.02.88.01.3.04.61.09.93-.12.01-.23.02-.32.03-.09,0-.18,0-.25,0-.53,0-.93-.12-1.21-.37-.28-.25-.42-.65-.42-1.22,0-.27.04-.66.12-1.16s.17-1.06.27-1.69c.1-.63.19-1.28.27-1.95.08-.67.12-1.32.12-1.93,0-.48-.03-.96-.07-1.42-.05-.47-.13-.92-.24-1.35.76.31,1.28.73,1.55,1.28.27.54.41,1.17.41,1.89,0,.23,0,.47-.03.72-.02.25-.05.5-.08.76l.11.02Z"/>
          <path class="cls-3" d="M144.03,72.68c-.23.64-.57,1.22-1.01,1.73s-.92.91-1.46,1.2c-.54.29-1.08.44-1.64.44-.83,0-1.47-.32-1.93-.96-.46-.64-.69-1.54-.69-2.7,0-.93.13-1.8.4-2.62.27-.82.63-1.54,1.09-2.16s1-1.1,1.62-1.45c.62-.35,1.28-.53,1.98-.53.21,0,.43.02.67.06.23.04.5.11.79.19-.67.16-1.28.44-1.84.83-.56.4-1.04.87-1.44,1.42-.4.56-.71,1.17-.93,1.85-.22.68-.33,1.39-.33,2.15s.13,1.33.39,1.73.63.6,1.11.6c.51,0,.99-.2,1.44-.6s.87-.94,1.24-1.63.66-1.46.87-2.33c.21-.87.31-1.77.31-2.71,0-.32-.01-.65-.04-.99-.03-.34-.06-.64-.11-.9.12-.01.23-.02.33-.03s.19,0,.28,0c.51,0,.89.13,1.16.39.27.26.4.64.4,1.13,0,.32-.04.73-.13,1.24-.09.51-.19,1.07-.31,1.7s-.22,1.29-.31,1.98c-.09.69-.14,1.38-.14,2.05,0,.53.04.99.13,1.37.09.38.23.81.44,1.29-.79-.16-1.36-.51-1.7-1.04-.35-.53-.52-1.31-.52-2.33v-.21s0-.09.02-.14l-.13-.04Z"/>
        </g>
        <text/>
      </g>
    </g>
  </g>
</svg>